<svg xmlns="http://www.w3.org/2000/svg" width="256" height="256" viewBox="0 0 100 100"><rect width="100" height="100" rx="20" fill="#3b1b53"></rect><path d="M13.25 37.87L13.25 37.87Q14.39 37.87 15.28 38.08Q16.18 38.28 17.06 38.74L17.06 38.74L16.15 40.51Q15.31 40.13 14.61 39.96Q13.91 39.79 13.28 39.79L13.28 39.79Q12.60 39.79 12.05 39.98Q11.49 40.17 11.09 40.52Q10.68 40.87 10.46 41.37Q10.24 41.87 10.24 42.49L10.24 42.49Q10.24 43.17 10.49 43.73Q10.74 44.29 11.14 44.77Q11.53 45.25 12.05 45.67Q12.56 46.09 13.09 46.48L13.09 46.48Q14.14 47.28 14.92 47.93Q15.71 48.59 16.24 49.22Q16.76 49.85 17.03 50.51Q17.29 51.16 17.29 51.90L17.29 51.90L17.29 53.19L18.15 54.85Q16.91 55.86 15.48 56.40Q14.05 56.94 12.43 56.94L12.43 56.94Q12.09 56.94 11.56 56.91Q11.04 56.88 10.42 56.78Q9.80 56.68 9.16 56.48Q8.52 56.28 7.93 55.93L7.93 55.93L8.79 54.04Q9.67 54.56 10.60 54.79Q11.53 55.02 12.37 55.02L12.37 55.02Q13.25 55.02 13.91 54.81Q14.58 54.60 15.20 54.22L15.20 54.22L15.20 52.15Q15.20 51.52 14.85 50.96Q14.51 50.40 13.99 49.90Q13.48 49.41 12.89 48.97Q12.29 48.54 11.80 48.15L11.80 48.15Q11.09 47.61 10.43 47.04Q9.76 46.47 9.26 45.80Q8.75 45.12 8.44 44.33Q8.13 43.54 8.13 42.54L8.13 42.54Q8.13 41.42 8.50 40.54Q8.87 39.67 9.54 39.08Q10.21 38.49 11.16 38.18Q12.10 37.87 13.25 37.87ZM18.55 43.25L20.44 42.85L22.68 52.45Q22.81 52.97 22.98 53.46Q23.15 53.96 23.40 54.33Q23.65 54.70 24.01 54.93Q24.38 55.16 24.94 55.16L24.94 55.16Q25.01 55.16 25.07 55.16Q25.13 55.16 25.20 55.13L25.20 55.13L28.06 42.85L29.95 43.25L25.33 62.99L23.46 62.55L24.76 56.94Q23.16 56.88 22.23 55.90Q21.29 54.91 20.82 52.90L20.82 52.90L18.55 43.25ZM32.57 46.29L31.72 44.83Q33.39 43.82 35.38 43.33Q37.37 42.85 39.58 42.85L39.58 42.85Q39.98 42.85 40.66 42.89Q41.34 42.92 42.13 43.09Q42.91 43.25 43.70 43.58Q44.49 43.91 45.11 44.48L45.11 44.48Q45.66 45.02 45.99 45.64Q46.31 46.26 46.46 46.92Q46.62 47.57 46.65 48.23Q46.69 48.89 46.69 49.52L46.69 49.52L46.69 56.65L44.80 56.65L44.80 50.56Q44.80 50 44.79 49.35Q44.79 48.70 44.69 48.05Q44.59 47.41 44.38 46.83Q44.17 46.25 43.76 45.83L43.76 45.83Q43.48 45.55 43.09 45.33Q42.71 45.11 42.27 44.96Q41.84 44.81 41.41 44.73Q40.98 44.65 40.61 44.65L40.61 44.65L40.61 56.65L38.68 56.65L38.68 44.65Q37.62 44.65 36.54 44.85Q35.45 45.05 34.49 45.46L34.49 45.46L34.49 56.65L32.57 56.65L32.57 46.29ZM49.41 55.57L50.26 54.04L50.26 38.90L49.66 37.01L52.18 37.01L52.18 43.20Q52.81 43.03 53.37 42.94Q53.93 42.85 54.60 42.85L54.60 42.85Q55.99 42.85 57.03 43.44Q58.07 44.04 58.77 45.02Q59.46 46.00 59.81 47.28Q60.15 48.55 60.15 49.90L60.15 49.90Q60.15 51.25 59.85 52.52Q59.55 53.79 58.88 54.78Q58.20 55.76 57.12 56.35Q56.04 56.94 54.48 56.94L54.48 56.94Q53.72 56.94 53.00 56.83Q52.29 56.71 51.64 56.52Q51.00 56.33 50.43 56.08Q49.87 55.83 49.41 55.57L49.41 55.57ZM52.18 45.14L52.18 54.67Q52.64 54.89 53.22 55.02Q53.81 55.16 54.37 55.16L54.37 55.16Q55.51 55.16 56.25 54.67Q56.99 54.19 57.42 53.43Q57.85 52.67 58.01 51.74Q58.17 50.81 58.17 49.90L58.17 49.90Q58.17 49.00 57.99 48.07Q57.81 47.13 57.36 46.37Q56.91 45.62 56.17 45.14Q55.43 44.65 54.34 44.65L54.34 44.65Q53.59 44.65 53.04 44.82Q52.49 44.99 52.18 45.14L52.18 45.14ZM65.03 48.64L65.03 54.37Q65.70 54.83 66.49 55.00Q67.29 55.16 67.94 55.16L67.94 55.16Q68.60 55.16 69.39 55.00Q70.17 54.83 70.84 54.37L70.84 54.37L70.84 48.64Q70.84 48.32 70.83 47.93Q70.82 47.54 70.76 47.14Q70.71 46.75 70.59 46.37Q70.46 45.99 70.24 45.66L70.24 45.66Q70.13 45.52 69.94 45.34Q69.76 45.17 69.49 45.01Q69.22 44.86 68.84 44.76Q68.46 44.65 67.94 44.65L67.94 44.65Q67.43 44.65 67.05 44.76Q66.67 44.86 66.38 45.01Q66.10 45.17 65.92 45.34Q65.73 45.52 65.63 45.66L65.63 45.66Q65.41 45.99 65.29 46.37Q65.16 46.75 65.11 47.14Q65.06 47.54 65.04 47.93Q65.03 48.32 65.03 48.64L65.03 48.64ZM63.11 55.60L63.11 48.70Q63.11 48.29 63.12 47.72Q63.13 47.16 63.23 46.55Q63.34 45.94 63.59 45.33Q63.84 44.71 64.34 44.17L64.34 44.17Q64.75 43.72 65.22 43.45Q65.69 43.19 66.16 43.06Q66.64 42.92 67.10 42.89Q67.56 42.85 67.94 42.85L67.94 42.85Q68.33 42.85 68.78 42.89Q69.23 42.92 69.70 43.06Q70.17 43.19 70.64 43.45Q71.11 43.72 71.53 44.17L71.53 44.17Q72.03 44.71 72.28 45.33Q72.53 45.94 72.64 46.56Q72.75 47.17 72.76 47.73Q72.76 48.29 72.76 48.70L72.76 48.70L72.76 53.59L73.79 54.82Q72.59 55.87 71.15 56.41Q69.72 56.94 67.94 56.94L67.94 56.94Q67.07 56.94 66.33 56.83Q65.60 56.71 65.01 56.52Q64.41 56.33 63.94 56.09Q63.46 55.84 63.11 55.60L63.11 55.60ZM75.52 37.01L78.04 37.01L78.04 48.89Q78.04 50.12 78.12 51.05Q78.20 51.98 78.50 52.72Q78.80 53.47 79.39 54.10Q79.99 54.73 81.01 55.36L81.01 55.36L80.01 56.94Q78.78 56.28 78.02 55.52Q77.25 54.76 76.83 53.80Q76.41 52.84 76.26 51.64Q76.12 50.44 76.12 48.89L76.12 48.89L76.12 38.90L75.52 37.01ZM91.02 43.94L90.24 45.61Q89.39 45.17 88.59 44.94Q87.79 44.71 86.78 44.71L86.78 44.71Q86.28 44.71 85.85 44.80Q85.42 44.89 85.10 45.10Q84.78 45.31 84.58 45.66Q84.39 46.02 84.39 46.54L84.39 46.54Q84.39 46.95 84.53 47.26Q84.67 47.57 84.93 47.82Q85.19 48.07 85.52 48.27Q85.86 48.48 86.25 48.67L86.25 48.67L88.23 49.63Q89.54 50.28 90.29 51.09Q91.04 51.90 91.04 53.11L91.04 53.11L91.04 53.79L92.07 55.02Q91.41 55.63 90.72 56.00Q90.02 56.37 89.32 56.58Q88.61 56.80 87.92 56.87Q87.24 56.94 86.58 56.94L86.58 56.94Q85.24 56.94 84.23 56.73Q83.21 56.52 82.46 56.20L82.46 56.20L82.46 54.28Q82.87 54.45 83.30 54.61Q83.74 54.78 84.22 54.90Q84.70 55.02 85.27 55.09Q85.83 55.16 86.52 55.16L86.52 55.16Q87.35 55.16 88.03 54.98Q88.72 54.80 89.13 54.50L89.13 54.50L89.13 53.90Q89.13 53.44 89.04 53.08Q88.95 52.71 88.74 52.40Q88.53 52.09 88.16 51.82Q87.79 51.54 87.24 51.25L87.24 51.25L84.92 50.12Q84.42 49.88 83.98 49.58Q83.53 49.27 83.19 48.84Q82.86 48.42 82.66 47.85Q82.46 47.29 82.46 46.54L82.46 46.54Q82.46 45.71 82.75 45.03Q83.05 44.35 83.61 43.86Q84.17 43.38 84.97 43.12Q85.77 42.85 86.78 42.85L86.78 42.85Q88.07 42.85 89.13 43.16Q90.18 43.47 91.02 43.94L91.02 43.94Z" fill="#ffffff"></path></svg>